<?xml version="1.0" encoding="UTF-8"?>
<svg id="Layer_1" xmlns="http://www.w3.org/2000/svg" version="1.1" viewBox="0 0 81.1 81.1">
  <!-- Generator: Adobe Illustrator 29.4.0, SVG Export Plug-In . SVG Version: 2.1.0 Build 152)  -->
  <defs>
    <style>
      .st0 {
        fill: #fff;
      }

      .st1 {
        fill: #005487;
      }

      .st2 {
        fill: #0f7cb5;
      }
    </style>
  </defs>
  <circle class="st0" cx="40.5" cy="40.5" r="40.5"/>
  <g>
    <path class="st2" d="M55.1,21.4l-42.6,14.3c-.2,0-.6.3-.6.7,0,.2.1.6.6.7l26.2,5.3,11.1,25.7s.2.4.5.4c.2,0,.5,0,.6-.6l6.7-44.4v-.7c.2-.9-.2-2.1-2.4-1.5"/>
    <path class="st1" d="M57.6,23.7h0v-.7c.1-.5,0-1.1-.4-1.4l-18.4,21,11.1,25.7s.2.4.5.4c.2,0,.5,0,.6-.6l6.7-44.4Z"/>
  </g>
</svg>