<?xml version="1.0" encoding="UTF-8"?>
<svg id="Layer_1" xmlns="http://www.w3.org/2000/svg" width="35.27778mm" height="12.93119mm" version="1.1" viewBox="0 0 100 36.65535">
  <!-- Generator: Adobe Illustrator 29.3.1, SVG Export Plug-In . SVG Version: 2.1.0 Build 151)  -->
  <g>
    <path d="M7.8308,21.86281l-.17907-1.56108h-.07696c-.69088.97256-2.02158,1.84251-3.78738,1.84251-2.50773,0-3.78738-1.7658-3.78738-3.55701,0-2.99414,2.6614-4.63193,7.447-4.60628v-.2559c0-1.02362-.28169-2.86613-2.81507-2.86613-1.15163,0-2.35432.35827-3.22427.92126l-.51181-1.48424c1.02362-.66535,2.50773-1.10032,4.06881-1.10032,3.78738,0,4.70864,2.58457,4.70864,5.06678v4.63193c0,1.07467.05105,2.12394.20472,2.96849h-2.04723ZM7.49806,15.54204c-2.45668-.05131-5.2461.38379-5.2461,2.78917,0,1.45872.97256,2.14985,2.1242,2.14985,1.61213,0,2.63575-1.02362,2.99389-2.07289.07696-.23038.12802-.48641.12802-.71653v-2.1496Z" fill="#fff"/>
    <path d="M23.4901,19.55954c.66548.4351,1.84251.89586,2.96849.89586,1.63779,0,2.40563-.81889,2.40563-1.84251,0-1.07492-.63982-1.66344-2.30326-2.27761-2.2263-.79324-3.27557-2.02158-3.27557-3.50595,0-1.99593,1.61239-3.63371,4.27379-3.63371,1.25374,0,2.35432.35814,3.0452.76759l-.56312,1.63779c-.48615-.30709-1.38176-.71653-2.53339-.71653-1.3307,0-2.07289.76784-2.07289,1.68909,0,1.02362.74219,1.48412,2.35432,2.09829,2.1496.81889,3.25017,1.89382,3.25017,3.73633,0,2.175-1.68909,3.71067-4.63193,3.71067-1.35636,0-2.61035-.33274-3.4803-.84455l.56286-1.71475Z" fill="#fff"/>
    <path d="M55.11834,3.69361v14.97033c0,1.10032.02565,2.35432.10236,3.19887h-2.02158l-.10236-2.1496h-.05105c-.69113,1.38201-2.2009,2.43103-4.22248,2.43103-2.99414,0-5.29715-2.53339-5.29715-6.29512-.02565-4.12012,2.53339-6.65351,5.55293-6.65351,1.89382,0,3.17321.8956,3.73633,1.89356h.05105V3.69361h2.25196ZM52.86638,14.51842c0-.28156-.0254-.66548-.10236-.94691-.33248-1.43306-1.56083-2.61022-3.24992-2.61022-2.32866,0-3.71067,2.04723-3.71067,4.78547,0,2.50773,1.22834,4.58062,3.65962,4.58062,1.50977,0,2.89153-.99796,3.30097-2.68706.07696-.30709.10236-.61417.10236-.97231v-2.1496Z" fill="#fff"/>
    <path d="M80.55306,15.56769c0,4.58062-3.17321,6.57655-6.16736,6.57655-3.35228,0-5.93698-2.45668-5.93698-6.37182,0-4.14578,2.71271-6.5768,6.1417-6.5768,3.55726,0,5.96263,2.58457,5.96263,6.37208ZM70.72634,15.69545c0,2.71271,1.56108,4.75995,3.76198,4.75995,2.14934,0,3.76173-2.02158,3.76173-4.811,0-2.09854-1.04927-4.75995-3.71067-4.75995s-3.81304,2.45668-3.81304,4.811Z" fill="#fff"/>
    <path d="M93.88395,13.34114c0-1.45859-.02565-2.71246-.10236-3.86409h1.97053l.07671,2.43103h.10236c.56286-1.66331,1.91922-2.71246,3.42899-2.71246.25603,0,.4351.02553.63982.07671v2.12394c-.23038-.05105-.46075-.07671-.76759-.07671-1.58673,0-2.71271,1.20269-3.0198,2.89178-.05105.30709-.10236.66522-.10236,1.04902v6.60246h-2.2263v-8.52167Z" fill="#fff"/>
    <g>
      <path d="M84.35008.02703l-6.82891,2.29586c-.036.01257-.10147.04582-.10041.10888-.00267.0366.02072.09894.09163.11281h0l4.19815.85646,1.78047,4.12536c.00169.00324.03087.0646.08023.07123.03164.00598.08733-.01406.09715-.09623h0l1.06835-7.1155.0173-.11667c.00724-.14032-.0424-.34279-.40397-.24218Z" fill="#fff"/>
      <path d="M84.73674.38588h0l.0173-.11667c.00335-.08004-.01122-.17742-.08878-.22969l-2.95472,3.36151,1.78047,4.12536c.00169.00324.03087.0646.08023.07123.03164.00598.08733-.01406.09715-.09623h0l1.06835-7.1155h0Z" fill="#fff"/>
    </g>
  </g>
  <g>
    <path d="M53.54584,30.8981c0-.43223-.01964-.75652-.03928-1.12983h.43231l.03928.83508h.01964c.29475-.54033.7467-.94317,1.52286-.94317.65824,0,1.15929.43238,1.35577,1.03163h.01964c.13756-.28486.30457-.4913.48141-.63868.30457-.25532.62878-.39295,1.12991-.39295.46177,0,1.5326.25547,1.5326,2.04362v2.78035h-.46177v-2.73132c0-1.06102-.41259-1.6898-1.22803-1.6898-.5895,0-1.06109.43223-1.23793.93328-.04918.13763-.08846.29475-.08846.46177v3.02607h-.46177v-2.94736c0-.85487-.41259-1.47376-1.16911-1.47376-.6386,0-1.12983.51094-1.30667,1.06102-.04918.12774-.07864.29475-.07864.45202v2.90808h-.46177v-3.58604Z" fill="#fff"/>
    <path d="M66.13185,34.48414l-.06874-.67796h-.02946c-.22601.36357-.7467.78605-1.50322.78605-.94317,0-1.3853-.66806-1.3853-1.29685,0-1.09055.96289-1.74887,2.8787-1.72923v-.11784c0-.47166-.08846-1.40494-1.20847-1.3952-.41267,0-.8449.1081-1.17893.35382l-.14738-.34393c.42241-.28486.95299-.40285,1.37541-.40285,1.36566,0,1.62113,1.02173,1.62113,1.86671v1.83717c0,.37346.01964.75652.06874,1.12009h-.42249ZM66.02383,31.95911c-1.03163-.02939-2.3874.12774-2.3874,1.25757,0,.67796.45187.9826.94317.9826.78598,0,1.22803-.48141,1.39505-.94317.02954-.09835.04918-.19655.04918-.28501v-1.01199Z" fill="#fff"/>
    <path d="M69.98363,27.50861h.46177v6.97553h-.46177v-6.97553Z" fill="#fff"/>
    <path d="M76.60564,34.48414l-.06874-.67796h-.02946c-.22601.36357-.7467.78605-1.50322.78605-.94317,0-1.3853-.66806-1.3853-1.29685,0-1.09055.96289-1.74887,2.8787-1.72923v-.11784c0-.47166-.08846-1.40494-1.20847-1.3952-.41267,0-.8449.1081-1.17893.35382l-.14738-.34393c.42241-.28486.95299-.40285,1.37541-.40285,1.36566,0,1.62113,1.02173,1.62113,1.86671v1.83717c0,.37346.01964.75652.06874,1.12009h-.42249ZM76.49762,31.95911c-1.03163-.02939-2.3874.12774-2.3874,1.25757,0,.67796.45187.9826.94317.9826.78598,0,1.22803-.48141,1.39505-.94317.02954-.09835.04918-.19655.04918-.28501v-1.01199Z" fill="#fff"/>
    <path d="M80.21185,29.76827l1.23793,3.08499c.12774.33403.2554.70734.34385,1.01199h.01964c.09828-.29475.21612-.65832.36349-1.04152l1.14955-3.05546h.50105l-1.41476,3.51723c-.56986,1.46386-.97263,2.33837-1.5916,2.8787-.37339.31439-.70742.45187-.82526.49115l-.14738-.39295c.23576-.08846.55015-.25547.82526-.53058.23576-.22594.55015-.61889.78598-1.17886.03928-.1081.05892-.15727.05892-.2063,0-.04918-.01964-.1081-.05892-.20645l-1.74879-4.37195h.50105Z" fill="#fff"/>
    <path d="M86.49016,33.86525c.2554.15712.6386.32414,1.06109.32414.74662,0,1.10037-.40285,1.10037-.894,0-.52069-.31439-.7958-.99235-1.07091-.77616-.29475-1.19857-.71724-1.19857-1.2871,0-.67781.53051-1.27721,1.45404-1.27721.43231,0,.7958.12774,1.04138.29475l-.18666.38321c-.1572-.11799-.46177-.28501-.93335-.28501-.59925,0-.91364.38321-.91364.81559,0,.49115.33403.70734.97263.97256.76634.29475,1.21829.67796,1.21829,1.3952,0,.80554-.62878,1.34587-1.59167,1.34587-.46177,0-.88418-.12774-1.19857-.32414l.16702-.39295Z" fill="#fff"/>
    <path d="M92.92559,28.42225c0,.21619-.14738.40285-.39303.40285-.21612,0-.36349-.18666-.36349-.40285,0-.21604.16702-.41259.38321-.41259.22594,0,.37331.18666.37331.41259ZM92.31645,34.48414v-4.71587h.46177v4.71587h-.46177Z" fill="#fff"/>
    <path d="M98.90915,34.48414l-.06874-.67796h-.02946c-.22601.36357-.7467.78605-1.50322.78605-.94317,0-1.3853-.66806-1.3853-1.29685,0-1.09055.96289-1.74887,2.8787-1.72923v-.11784c0-.47166-.08846-1.40494-1.20847-1.3952-.41267,0-.8449.1081-1.17893.35382l-.14738-.34393c.42241-.28486.95299-.40285,1.37541-.40285,1.36566,0,1.62113,1.02173,1.62113,1.86671v1.83717c0,.37346.01964.75652.06874,1.12009h-.42249ZM98.80113,31.95911c-1.03163-.02939-2.3874.12774-2.3874,1.25757,0,.67796.45187.9826.94317.9826.78598,0,1.22803-.48141,1.39505-.94317.02954-.09835.04918-.19655.04918-.28501v-1.01199Z" fill="#fff"/>
  </g>
</svg>