<?xml version="1.0" encoding="UTF-8"?>
<svg id="Layer_1" xmlns="http://www.w3.org/2000/svg" width="35.27778mm" height="12.93119mm" version="1.1" viewBox="0 0 100 36.65535">
  <!-- Generator: Adobe Illustrator 29.3.1, SVG Export Plug-In . SVG Version: 2.1.0 Build 151)  -->
  <g>
    <path d="M7.8308,21.97575l-.17907-1.56108h-.07696c-.69088.97256-2.02158,1.84251-3.78738,1.84251-2.50773,0-3.78738-1.7658-3.78738-3.55701,0-2.99414,2.6614-4.63193,7.447-4.60628v-.2559c0-1.02362-.28169-2.86613-2.81507-2.86613-1.15163,0-2.35432.35827-3.22427.92126l-.51181-1.48424c1.02362-.66535,2.50773-1.10032,4.06881-1.10032,3.78738,0,4.70864,2.58457,4.70864,5.06678v4.63193c0,1.07467.05105,2.12394.20472,2.96849h-2.04723ZM7.49806,15.65498c-2.45668-.05131-5.2461.38379-5.2461,2.78917,0,1.45872.97256,2.14985,2.1242,2.14985,1.61213,0,2.63575-1.02362,2.99389-2.07289.07696-.23038.12802-.48641.12802-.71653v-2.1496Z" fill="#fff"/>
    <path d="M23.4901,19.67249c.66548.4351,1.84251.89586,2.96849.89586,1.63779,0,2.40563-.81889,2.40563-1.84251,0-1.07492-.63982-1.66344-2.30326-2.27761-2.2263-.79324-3.27557-2.02158-3.27557-3.50595,0-1.99593,1.61239-3.63371,4.27379-3.63371,1.25374,0,2.35432.35814,3.0452.76759l-.56312,1.63779c-.48615-.30709-1.38176-.71653-2.53339-.71653-1.3307,0-2.07289.76784-2.07289,1.68909,0,1.02362.74219,1.48412,2.35432,2.09829,2.1496.81889,3.25017,1.89382,3.25017,3.73633,0,2.175-1.68909,3.71067-4.63193,3.71067-1.35636,0-2.61035-.33274-3.4803-.84455l.56286-1.71475Z" fill="#fff"/>
    <path d="M55.11834,3.80656v14.97033c0,1.10032.02565,2.35432.10236,3.19887h-2.02158l-.10236-2.1496h-.05105c-.69113,1.38201-2.2009,2.43103-4.22248,2.43103-2.99414,0-5.29715-2.53339-5.29715-6.29512-.02565-4.12012,2.53339-6.65351,5.55293-6.65351,1.89382,0,3.17321.8956,3.73633,1.89356h.05105V3.80656h2.25196ZM52.86638,14.63137c0-.28156-.0254-.66548-.10236-.94691-.33248-1.43306-1.56083-2.61022-3.24992-2.61022-2.32866,0-3.71067,2.04723-3.71067,4.78547,0,2.50773,1.22834,4.58062,3.65962,4.58062,1.50977,0,2.89153-.99796,3.30097-2.68706.07696-.30709.10236-.61417.10236-.97231v-2.1496Z" fill="#fff"/>
    <path d="M80.55306,15.68064c0,4.58062-3.17321,6.57655-6.16736,6.57655-3.35228,0-5.93698-2.45668-5.93698-6.37182,0-4.14578,2.71271-6.5768,6.1417-6.5768,3.55726,0,5.96263,2.58457,5.96263,6.37208ZM70.72634,15.8084c0,2.71271,1.56108,4.75995,3.76198,4.75995,2.14934,0,3.76173-2.02158,3.76173-4.811,0-2.09854-1.04927-4.75995-3.71067-4.75995s-3.81304,2.45668-3.81304,4.811Z" fill="#fff"/>
    <path d="M93.88395,13.45408c0-1.45859-.02565-2.71246-.10236-3.86409h1.97053l.07671,2.43103h.10236c.56286-1.66331,1.91922-2.71246,3.42899-2.71246.25603,0,.4351.02553.63982.07671v2.12394c-.23038-.05105-.46075-.07671-.76759-.07671-1.58673,0-2.71271,1.20269-3.0198,2.89178-.05105.30709-.10236.66522-.10236,1.04902v6.60246h-2.2263v-8.52167Z" fill="#fff"/>
    <g>
      <path d="M84.35008.13998l-6.82891,2.29586c-.036.01257-.10147.04582-.10041.10888-.00267.0366.02072.09894.09163.11281h0l4.19815.85646,1.78047,4.12536c.00169.00324.03087.0646.08023.07123.03164.00598.08733-.01406.09715-.09623h0l1.06835-7.1155.0173-.11667c.00724-.14032-.0424-.34279-.40397-.24218Z" fill="#fff"/>
      <path d="M84.73674.49883h0l.0173-.11667c.00335-.08004-.01122-.17742-.08878-.22969l-2.95472,3.36151,1.78047,4.12536c.00169.00324.03087.0646.08023.07123.03164.00598.08733-.01406.09715-.09623h0l1.06835-7.1155h0Z" fill="#fff"/>
    </g>
  </g>
  <g>
    <path d="M69.82636,28.5156v1.36566h1.34602v.37331h-1.34602v3.06535c0,.59925.18666.98245.68778.98245.24558,0,.42241-.03928.54033-.07856l.05892.36342c-.1572.05907-.37331.1081-.65824.1081-.34385,0-.62878-.1081-.80562-.33403-.21612-.24558-.29475-.63853-.29475-1.11994v-2.98679h-.7958v-.37331h.7958v-1.21829l.47159-.14738Z" fill="#fff"/>
    <path d="M76.75302,34.59713l-.06874-.67796h-.02946c-.22601.36357-.7467.78605-1.50322.78605-.94317,0-1.3853-.66806-1.3853-1.29685,0-1.09055.96289-1.74887,2.8787-1.72923v-.11784c0-.47166-.08846-1.40494-1.20847-1.3952-.41267,0-.8449.1081-1.17893.35382l-.14738-.34393c.42241-.28486.95299-.40285,1.37541-.40285,1.36566,0,1.62113,1.02173,1.62113,1.86671v1.83717c0,.37346.01964.75652.06874,1.12009h-.42249ZM76.645,32.0721c-1.03163-.02939-2.3874.12774-2.3874,1.25757,0,.67796.45187.9826.94317.9826.78598,0,1.22803-.48141,1.39505-.94317.02954-.09835.04918-.19655.04918-.28501v-1.01199Z" fill="#fff"/>
    <path d="M81.21395,28.53524c0,.21619-.14738.40285-.39303.40285-.21612,0-.36349-.18666-.36349-.40285,0-.21604.16702-.41259.38321-.41259.22594,0,.37331.18666.37331.41259ZM80.6048,34.59713v-4.71587h.46177v4.71587h-.46177Z" fill="#fff"/>
    <path d="M84.62338,31.3844c0-.5895-.01964-1.06102-.03928-1.50314h.44213l.03928.894h.01964c.33403-.62878.91371-1.00209,1.73897-1.00209,1.20847,0,2.0239,1.00209,2.0239,2.3874,0,1.68995-1.00209,2.54467-2.14182,2.54467-.67788,0-1.27721-.30465-1.60142-.87436h-.01964v2.71153h-.46177v-5.158ZM85.08514,32.74032c0,.12774.01964.25532.03928.37331.19648.72698.82526,1.19865,1.55232,1.19865,1.08073,0,1.69969-.87451,1.69969-2.13208,0-1.06102-.5895-2.02383-1.66041-2.02383-.6877,0-1.35577.48141-1.56214,1.25757-.02946.12774-.06874.27511-.06874.40285v.92353Z" fill="#fff"/>
    <path d="M92.08084,32.19009c0,1.51304.82526,2.10254,1.79789,2.10254.6877,0,1.04145-.13763,1.30667-.26537l.11792.37331c-.17684.09835-.65824.29475-1.4835.29475-1.35584,0-2.20074-.98245-2.20074-2.36776,0-1.57196.90382-2.55441,2.12211-2.55441,1.5425,0,1.83725,1.45412,1.83725,2.13193,0,.12774,0,.20645-.01964.28501h-3.47795ZM95.0872,31.81678c.00982-.65832-.26529-1.66041-1.40494-1.66041-1.04145,0-1.4934.93328-1.57196,1.66041h2.9769Z" fill="#fff"/>
    <path d="M99.35143,28.53524c0,.21619-.14738.40285-.39303.40285-.21612,0-.36349-.18666-.36349-.40285,0-.21604.16702-.41259.38321-.41259.22594,0,.37331.18666.37331.41259ZM98.74228,34.59713v-4.71587h.46177v4.71587h-.46177Z" fill="#fff"/>
  </g>
</svg>