<?xml version="1.0" encoding="UTF-8"?>
<svg id="Layer_1" xmlns="http://www.w3.org/2000/svg" width="35.27778mm" height="12.88964mm" version="1.1" viewBox="0 0 100 36.53755">
  <!-- Generator: Adobe Illustrator 29.3.1, SVG Export Plug-In . SVG Version: 2.1.0 Build 151)  -->
  <g>
    <path d="M7.8308,21.86281l-.17907-1.56108h-.07696c-.69088.97256-2.02158,1.84251-3.78738,1.84251-2.50773,0-3.78738-1.7658-3.78738-3.55701,0-2.99414,2.6614-4.63193,7.447-4.60628v-.2559c0-1.02362-.28169-2.86613-2.81507-2.86613-1.15163,0-2.35432.35827-3.22427.92126l-.51181-1.48424c1.02362-.66535,2.50773-1.10032,4.06881-1.10032,3.78738,0,4.70864,2.58457,4.70864,5.06678v4.63193c0,1.07467.05105,2.12394.20472,2.96849h-2.04723ZM7.49806,15.54204c-2.45668-.05131-5.2461.38379-5.2461,2.78917,0,1.45872.97256,2.14985,2.1242,2.14985,1.61213,0,2.63575-1.02362,2.99389-2.07289.07696-.23038.12802-.48641.12802-.71653v-2.1496Z" fill="#fff"/>
    <path d="M23.4901,19.55954c.66548.4351,1.84251.89586,2.96849.89586,1.63779,0,2.40563-.81889,2.40563-1.84251,0-1.07492-.63982-1.66344-2.30326-2.27761-2.2263-.79324-3.27557-2.02158-3.27557-3.50595,0-1.99593,1.61239-3.63371,4.27379-3.63371,1.25374,0,2.35432.35814,3.0452.76759l-.56312,1.63779c-.48615-.30709-1.38176-.71653-2.53339-.71653-1.3307,0-2.07289.76784-2.07289,1.68909,0,1.02362.74219,1.48412,2.35432,2.09829,2.1496.81889,3.25017,1.89382,3.25017,3.73633,0,2.175-1.68909,3.71067-4.63193,3.71067-1.35636,0-2.61035-.33274-3.4803-.84455l.56286-1.71475Z" fill="#fff"/>
    <path d="M55.11834,3.69361v14.97033c0,1.10032.02565,2.35432.10236,3.19887h-2.02158l-.10236-2.1496h-.05105c-.69113,1.38201-2.2009,2.43103-4.22248,2.43103-2.99414,0-5.29715-2.53339-5.29715-6.29512-.02565-4.12012,2.53339-6.65351,5.55293-6.65351,1.89382,0,3.17321.8956,3.73633,1.89356h.05105V3.69361h2.25196ZM52.86638,14.51842c0-.28156-.0254-.66548-.10236-.94691-.33248-1.43306-1.56083-2.61022-3.24992-2.61022-2.32866,0-3.71067,2.04723-3.71067,4.78547,0,2.50773,1.22834,4.58062,3.65962,4.58062,1.50977,0,2.89153-.99796,3.30097-2.68706.07696-.30709.10236-.61417.10236-.97231v-2.1496Z" fill="#fff"/>
    <path d="M80.55306,15.56769c0,4.58062-3.17321,6.57655-6.16736,6.57655-3.35228,0-5.93698-2.45668-5.93698-6.37182,0-4.14578,2.71271-6.5768,6.1417-6.5768,3.55726,0,5.96263,2.58457,5.96263,6.37208ZM70.72634,15.69545c0,2.71271,1.56108,4.75995,3.76198,4.75995,2.14934,0,3.76173-2.02158,3.76173-4.811,0-2.09854-1.04927-4.75995-3.71067-4.75995s-3.81304,2.45668-3.81304,4.811Z" fill="#fff"/>
    <path d="M93.88395,13.34114c0-1.45859-.02565-2.71246-.10236-3.86409h1.97053l.07671,2.43103h.10236c.56286-1.66331,1.91922-2.71246,3.42899-2.71246.25603,0,.4351.02553.63982.07671v2.12394c-.23038-.05105-.46075-.07671-.76759-.07671-1.58673,0-2.71271,1.20269-3.0198,2.89178-.05105.30709-.10236.66522-.10236,1.04902v6.60246h-2.2263v-8.52167Z" fill="#fff"/>
    <g>
      <path d="M84.35008.02703l-6.82891,2.29586c-.036.01257-.10147.04582-.10041.10888-.00267.0366.02072.09894.09163.11281h0l4.19815.85646,1.78047,4.12536c.00169.00324.03087.0646.08023.07123.03164.00598.08733-.01406.09715-.09623h0l1.06835-7.1155.0173-.11667c.00724-.14032-.0424-.34279-.40397-.24218Z" fill="#fff"/>
      <path d="M84.73674.38588h0l.0173-.11667c.00335-.08004-.01122-.17742-.08878-.22969l-2.95472,3.36151,1.78047,4.12536c.00169.00324.03087.0646.08023.07123.03164.00598.08733-.01406.09715-.09623h0l1.06835-7.1155h0Z" fill="#fff"/>
    </g>
  </g>
  <g>
    <path d="M68.4604,27.50865v5.87524c0,.35367.01964.76626.03928,1.1003h-.42249l-.02946-.894h-.01964c-.24558.52069-.80562,1.00209-1.67998,1.00209-1.15937,0-2.03372-.97271-2.03372-2.37765-.0099-1.57196.96281-2.55441,2.12211-2.55441.81544,0,1.32631.42249,1.5425.82533h.01964v-2.9769h.46177ZM67.99863,31.63502c0-.12774-.01964-.30465-.0491-.43223-.16702-.62878-.71724-1.15937-1.48358-1.15937-1.03155,0-1.67998.894-1.67998,2.12218,0,1.06102.53051,2.03372,1.65052,2.03372.67788,0,1.30667-.44213,1.51304-1.22818.02946-.12774.0491-.24558.0491-.39295v-.94317Z" fill="#fff"/>
    <path d="M72.6265,28.42229c0,.21619-.14738.40285-.39303.40285-.21612,0-.36349-.18666-.36349-.40285,0-.21604.16702-.41259.38321-.41259.22594,0,.37331.18666.37331.41259ZM72.01736,34.48418v-4.71587h.46177v4.71587h-.46177Z" fill="#fff"/>
    <path d="M79.82834,29.76831c-.01964.35367-.03928.72698-.03928,1.21829v2.80988c0,1.20839-.24565,1.80779-.6386,2.1811-.43231.41259-1.07091.55997-1.60142.55997-.5404,0-1.13973-.13748-1.4934-.40285l.16702-.38306c.32421.21604.78598.39295,1.39512.39295.99227,0,1.70951-.51094,1.70951-1.90599v-.66806h-.01964c-.24565.48141-.7958.91364-1.64077.91364-1.18875,0-2.02383-1.03163-2.02383-2.31858,0-1.64077,1.08066-2.50539,2.12211-2.50539.93335,0,1.39512.51094,1.5916.90389h.01964l.01964-.7958h.43231ZM79.3273,31.5761c0-.16702-.01964-.31439-.05892-.45202-.19655-.56986-.6976-1.08066-1.46394-1.08066-1.00209,0-1.6898.82533-1.6898,2.073,0,1.06102.55997,1.9748,1.67016,1.9748.62878,0,1.21829-.38321,1.45404-1.06117.059-.15712.08846-.33403.08846-.50105v-.95292Z" fill="#fff"/>
    <path d="M83.8766,28.42229c0,.21619-.14738.40285-.39303.40285-.21612,0-.36349-.18666-.36349-.40285,0-.21604.16702-.41259.38321-.41259.22594,0,.37331.18666.37331.41259ZM83.26746,34.48418v-4.71587h.46177v4.71587h-.46177Z" fill="#fff"/>
    <path d="M87.93453,28.40265v1.36566h1.34602v.37331h-1.34602v3.06535c0,.59925.18666.98245.68778.98245.24558,0,.42241-.03928.54033-.07856l.05892.36342c-.1572.05907-.37331.1081-.65824.1081-.34385,0-.62878-.1081-.80562-.33403-.21612-.24558-.29475-.63853-.29475-1.11994v-2.98679h-.7958v-.37331h.7958v-1.21829l.47159-.14738Z" fill="#fff"/>
    <path d="M94.86119,34.48418l-.06874-.67796h-.02946c-.22601.36357-.7467.78605-1.50322.78605-.94317,0-1.3853-.66806-1.3853-1.29685,0-1.09055.96289-1.74887,2.8787-1.72923v-.11784c0-.47166-.08846-1.40494-1.20847-1.3952-.41267,0-.8449.1081-1.17893.35382l-.14738-.34393c.42241-.28486.95299-.40285,1.37541-.40285,1.36566,0,1.62113,1.02173,1.62113,1.86671v1.83717c0,.37346.01964.75652.06874,1.12009h-.42249ZM94.75317,31.95916c-1.03163-.02939-2.3874.12774-2.3874,1.25757,0,.67796.45187.9826.94317.9826.78598,0,1.22803-.48141,1.39505-.94317.02954-.09835.04918-.19655.04918-.28501v-1.01199Z" fill="#fff"/>
    <path d="M98.7129,27.50865h.46177v6.97553h-.46177v-6.97553Z" fill="#fff"/>
  </g>
</svg>