<svg width="109" height="40" viewBox="0 0 109 40" fill="none" xmlns="http://www.w3.org/2000/svg">
<path d="M8.45831 23.5379L8.26489 21.8572H8.18176C7.43552 22.9043 5.99818 23.8409 4.09088 23.8409C1.38219 23.8409 0 21.9398 0 20.0114C0 16.7878 2.87467 15.0245 8.04376 15.0522V14.7766C8.04376 13.6746 7.7395 11.6909 5.0031 11.6909C3.75919 11.6909 2.46012 12.0766 1.52046 12.6828L0.967643 11.0848C2.07329 10.3684 3.67633 9.90015 5.36251 9.90015C9.45339 9.90015 10.4485 12.6828 10.4485 15.3551V20.342C10.4485 21.499 10.5036 22.6287 10.6696 23.5379H8.45831ZM8.0989 16.7328C5.44536 16.6776 2.43241 17.146 2.43241 19.7357C2.43241 21.3062 3.48291 22.0503 4.72683 22.0503C6.46815 22.0503 7.57379 20.9483 7.96063 19.8186C8.04376 19.5706 8.0989 19.2949 8.0989 19.0471V16.7328Z" fill="white"/>
<path d="M25.3724 21.0582C26.0912 21.5266 27.3625 22.0227 28.5787 22.0227C30.3478 22.0227 31.1771 21.141 31.1771 20.039C31.1771 18.8817 30.486 18.2481 28.6893 17.5869C26.2846 16.7328 25.1512 15.4104 25.1512 13.8123C25.1512 11.6634 26.8928 9.90015 29.7675 9.90015C31.1217 9.90015 32.3105 10.2857 33.0567 10.7265L32.4485 12.4898C31.9234 12.1592 30.956 11.7184 29.7121 11.7184C28.2748 11.7184 27.4731 12.5451 27.4731 13.5369C27.4731 14.639 28.2748 15.1347 30.0161 15.796C32.3379 16.6776 33.5267 17.8349 33.5267 19.8186C33.5267 22.1602 31.7022 23.8136 28.5236 23.8136C27.0585 23.8136 25.7041 23.4553 24.7644 22.9043L25.3724 21.0582Z" fill="white"/>
<path d="M59.5351 3.97656V20.094C59.5351 21.2786 59.5628 22.6287 59.6456 23.5379H57.4621L57.3515 21.2236H57.2964C56.5498 22.7115 54.9191 23.8409 52.7355 23.8409C49.5014 23.8409 47.0139 21.1134 47.0139 17.0635C46.9862 12.6276 49.7503 9.90014 53.0118 9.90014C55.0574 9.90014 56.4393 10.8644 57.0475 11.9388H57.1027V3.97656H59.5351ZM57.1027 15.6308C57.1027 15.3277 57.0752 14.9143 56.9921 14.6113C56.633 13.0685 55.3062 11.8011 53.4818 11.8011C50.9665 11.8011 49.4737 14.0052 49.4737 16.9532C49.4737 19.6531 50.8005 21.8848 53.4266 21.8848C55.0574 21.8848 56.5498 20.8104 56.9921 18.9919C57.0752 18.6613 57.1027 18.3307 57.1027 17.9451V15.6308Z" fill="white"/>
<path d="M87.0081 16.7605C87.0081 21.6921 83.5806 23.8409 80.3466 23.8409C76.7256 23.8409 73.9338 21.196 73.9338 16.9809C73.9338 12.5174 76.8639 9.90015 80.5677 9.90015C84.41 9.90015 87.0081 12.6828 87.0081 16.7605ZM76.394 16.898C76.394 19.8186 78.0801 22.0227 80.4574 22.0227C82.779 22.0227 84.5206 19.8462 84.5206 16.8431C84.5206 14.5837 83.3872 11.7184 80.5126 11.7184C77.6379 11.7184 76.394 14.3633 76.394 16.898Z" fill="white"/>
<path d="M101.407 14.3633C101.407 12.793 101.379 11.443 101.297 10.2031H103.425L103.508 12.8204H103.618C104.226 11.0297 105.691 9.90015 107.322 9.90015C107.599 9.90015 107.792 9.92763 108.013 9.98273V12.2694C107.765 12.2144 107.516 12.1868 107.184 12.1868C105.47 12.1868 104.254 13.4817 103.922 15.3002C103.867 15.6308 103.812 16.0164 103.812 16.4296V23.5379H101.407V14.3633Z" fill="white"/>
<path d="M91.1093 0.0291037L83.7332 2.50088C83.6943 2.51441 83.6236 2.55021 83.6247 2.6181C83.6218 2.6575 83.6471 2.72462 83.7237 2.73955L88.2583 3.66163L90.1814 8.10308C90.1832 8.10656 90.2148 8.17263 90.2681 8.17976C90.3022 8.1862 90.3624 8.16463 90.373 8.07615L91.527 0.41545L91.5457 0.289844C91.5535 0.138768 91.4999 -0.0792068 91.1093 0.0291037Z" fill="white"/>
<path d="M91.527 0.415377L91.5457 0.289771C91.5493 0.203593 91.5336 0.0987572 91.4498 0.0424805L88.2583 3.66156L90.1814 8.103C90.1833 8.10649 90.2148 8.17256 90.2681 8.17969C90.3023 8.18613 90.3624 8.16455 90.373 8.07608L91.527 0.415377Z" fill="white"/>
<path d="M49.8287 36.5807C50.1071 36.7557 50.5257 36.9389 50.9955 36.9389C51.8114 36.9389 52.2002 36.4919 52.2002 35.9535C52.2002 35.3854 51.857 35.0812 51.1089 34.788C50.261 34.4596 49.7938 33.9989 49.7938 33.3718C49.7938 32.6261 50.3825 31.9717 51.3898 31.9717C51.8681 31.9717 52.2706 32.1145 52.5404 32.3001L52.3353 32.7174C52.1572 32.5908 51.8221 32.4051 51.3088 32.4051C50.6498 32.4051 50.2985 32.8279 50.2985 33.2991C50.2985 33.84 50.6659 34.0691 51.3736 34.3597C52.2108 34.6912 52.7079 35.1054 52.7079 35.8889C52.7079 36.7749 52.019 37.3723 50.9575 37.3723C50.4579 37.3723 49.9851 37.2295 49.6394 37.0141L49.8287 36.5807Z" fill="white"/>
<path d="M56.774 30.6125C56.774 30.8517 56.6146 31.0591 56.3418 31.0591C56.1069 31.0591 55.9424 30.8517 55.9424 30.6125C55.9424 30.3754 56.1231 30.1655 56.361 30.1655C56.6065 30.1655 56.774 30.3673 56.774 30.6125ZM56.1018 37.2594V32.0903H56.6146V37.2594H56.1018Z" fill="white"/>
<path d="M60.3897 33.3259C60.3897 32.8521 60.373 32.4969 60.3462 32.0902H60.8245L60.862 33.0247H60.8838C61.1672 32.4429 61.8182 31.9717 62.6691 31.9717C63.1636 31.9717 64.4787 32.225 64.4787 34.1604V37.2593H63.9654V34.2063C63.9654 33.2638 63.601 32.4106 62.5289 32.4106C61.7995 32.4106 61.1784 32.9303 60.9728 33.6003C60.9349 33.7245 60.9025 33.8995 60.9025 34.061V37.2593H60.3897V33.3259Z" fill="white"/>
<path d="M72.3853 32.0902C72.3585 32.4752 72.3423 32.8844 72.3423 33.4258V36.5055C72.3423 37.8299 72.0694 38.4868 71.6316 38.899C71.1588 39.3486 70.4623 39.51 69.8761 39.51C69.2844 39.51 68.6228 39.3592 68.2285 39.0655L68.4123 38.6538C68.7711 38.8879 69.2819 39.0847 69.9546 39.0847C71.0429 39.0847 71.829 38.5221 71.829 36.9898V36.2603H71.8072C71.5369 36.7855 70.9295 37.2593 70.0032 37.2593C68.7013 37.2593 67.78 36.1261 67.78 34.7234C67.78 32.9167 68.966 31.9717 70.1166 31.9717C71.1345 31.9717 71.6478 32.5292 71.8584 32.9626H71.8801L71.91 32.0902H72.3853ZM71.829 34.0771C71.829 33.8915 71.8128 33.73 71.7642 33.5791C71.5506 32.9545 71.0024 32.397 70.1515 32.397C69.0551 32.397 68.2989 33.2961 68.2989 34.6639C68.2989 35.8269 68.9119 36.8339 70.1378 36.8339C70.8293 36.8339 71.4752 36.4061 71.7369 35.6629C71.7966 35.4934 71.829 35.2991 71.829 35.1165V34.0771Z" fill="white"/>
<path d="M78.9441 37.2593L78.8687 36.5191H78.8444C78.5933 36.9172 78.0153 37.3778 77.1912 37.3778C76.149 37.3778 75.665 36.6452 75.665 35.956C75.665 34.7638 76.7184 34.0448 78.8282 34.0665V33.9288C78.8282 33.4177 78.728 32.397 77.502 32.4051C77.0479 32.4051 76.5757 32.5262 76.2001 32.79L76.0381 32.4187C76.5109 32.0983 77.0884 31.9717 77.5587 31.9717C79.055 31.9717 79.3415 33.0918 79.3415 34.0151V36.0317C79.3415 36.4409 79.3577 36.8637 79.4169 37.2593H78.9441ZM78.8282 34.4969C77.6989 34.4646 76.2082 34.6341 76.2082 35.8753C76.2082 36.6185 76.6997 36.9525 77.2398 36.9525C78.1043 36.9525 78.5959 36.4192 78.774 35.9157C78.812 35.8057 78.8282 35.6952 78.8282 35.6064V34.4969Z" fill="white"/>
<path d="M83.0477 33.7406C83.0477 33.0943 83.0315 32.5802 83.0046 32.0902H83.4961L83.5341 33.0701H83.5554C83.9284 32.3864 84.5682 31.9717 85.4677 31.9717C86.7995 31.9717 87.699 33.0701 87.699 34.5887C87.699 36.4384 86.594 37.3778 85.3407 37.3778C84.6006 37.3778 83.9416 37.0438 83.5827 36.4222H83.5609V39.3914H83.0477V33.7406ZM83.5609 35.2239C83.5609 35.3637 83.5771 35.504 83.607 35.6356C83.8176 36.4353 84.5146 36.9525 85.3113 36.9525C86.5024 36.9525 87.1802 35.9883 87.1802 34.6099C87.1802 33.447 86.5292 32.397 85.3544 32.397C84.5956 32.397 83.8662 32.9192 83.6364 33.7754C83.6014 33.9157 83.5609 34.0771 83.5609 34.2169V35.2239Z" fill="white"/>
<path d="M95.4729 34.6261C95.4729 36.5564 94.1467 37.3778 92.9911 37.3778C91.6487 37.3778 90.614 36.3385 90.614 34.7154C90.614 32.9465 91.7782 31.9717 93.0665 31.9717C94.498 31.9717 95.4729 33.0433 95.4729 34.6261ZM91.1329 34.6912C91.1329 35.9833 91.9589 36.9525 93.026 36.9525C94.1037 36.9525 94.9546 35.9752 94.9546 34.6503C94.9546 33.7058 94.4195 32.397 93.0528 32.397C91.7322 32.397 91.1329 33.5761 91.1329 34.6912Z" fill="white"/>
<path d="M98.8179 33.6412C98.8179 33.124 98.8017 32.5908 98.7749 32.0902H99.2502L99.272 33.1402H99.3013C99.5286 32.4858 100.063 31.9717 100.773 31.9717C100.846 31.9717 100.92 31.9798 100.984 31.9959V32.4858C100.906 32.4697 100.833 32.4697 100.736 32.4697C100.025 32.4697 99.5149 33.0862 99.3742 33.9157C99.3474 34.0665 99.3312 34.2386 99.3312 34.4056V37.2593H98.8179V33.6412Z" fill="white"/>
<path d="M103.997 34.6261C103.997 36.2764 104.899 36.9308 105.969 36.9308C106.726 36.9308 107.117 36.7799 107.411 36.6372L107.544 37.0413C107.344 37.1488 106.812 37.3723 105.907 37.3723C104.416 37.3723 103.49 36.29 103.49 34.7769C103.49 33.0514 104.481 31.9717 105.82 31.9717C107.519 31.9717 107.841 33.563 107.841 34.3087C107.841 34.454 107.841 34.5347 107.824 34.6261H103.997ZM107.303 34.2169C107.317 33.4954 107.014 32.397 105.753 32.397C104.613 32.397 104.119 33.4202 104.025 34.2169H107.303Z" fill="white"/>
</svg>
