<svg width="158" height="35" viewBox="0 0 158 35" fill="none" xmlns="http://www.w3.org/2000/svg">
<path d="M12.4585 34.5343L12.1765 32.0756H12.0553C10.9671 33.6074 8.87127 34.9776 6.09013 34.9776C2.14045 34.9776 0.125 32.1964 0.125 29.3753C0.125 24.6595 4.31671 22.08 11.854 22.1204V21.7174C11.854 20.1052 11.4104 17.2032 7.42029 17.2032C5.60647 17.2032 3.71224 17.7675 2.34207 18.6542L1.53597 16.3165C3.14817 15.2686 5.48565 14.5835 7.94435 14.5835C13.9095 14.5835 15.3605 18.6542 15.3605 22.5637V29.859C15.3605 31.5516 15.4409 33.2042 15.6829 34.5343H12.4585ZM11.9344 24.5791C8.06517 24.4983 3.67183 25.1836 3.67183 28.9721C3.67183 31.2695 5.20362 32.3581 7.01744 32.3581C9.55655 32.3581 11.1687 30.7459 11.7328 29.0933C11.854 28.7304 11.9344 28.3272 11.9344 27.9647V24.5791Z" fill="white"/>
<path d="M37.1219 30.9067C38.17 31.592 40.0238 32.3177 41.7972 32.3177C44.3767 32.3177 45.5861 31.0279 45.5861 29.4157C45.5861 27.7227 44.5784 26.7958 41.9585 25.8285C38.452 24.5791 36.7994 22.6445 36.7994 20.3066C36.7994 17.163 39.3389 14.5835 43.5306 14.5835C45.5053 14.5835 47.2387 15.1476 48.3268 15.7924L47.4399 18.372C46.6742 17.8883 45.2637 17.2434 43.4498 17.2434C41.354 17.2434 40.185 18.4528 40.185 19.9037C40.185 21.5159 41.354 22.2412 43.8931 23.2085C47.2787 24.4983 49.0121 26.1913 49.0121 29.0933C49.0121 32.5189 46.3518 34.9376 41.7168 34.9376C39.5806 34.9376 37.6055 34.4135 36.2354 33.6074L37.1219 30.9067Z" fill="white"/>
<path d="M86.9363 5.91797V29.4962C86.9363 31.2293 86.9768 33.2043 87.0976 34.5345H83.9136L83.7524 31.1488H83.6719C82.5834 33.3255 80.2055 34.9777 77.0215 34.9777C72.3058 34.9777 68.6785 30.9876 68.6785 25.0629C68.6381 18.5737 72.6686 14.5836 77.4244 14.5836C80.4072 14.5836 82.4222 15.9942 83.3091 17.566H83.3895V5.91797H86.9363ZM83.3895 22.967C83.3895 22.5236 83.3495 21.9189 83.2283 21.4757C82.7046 19.2186 80.77 17.3646 78.1097 17.3646C74.442 17.3646 72.2654 20.589 72.2654 24.9017C72.2654 28.8514 74.2 32.1162 78.0293 32.1162C80.4072 32.1162 82.5834 30.5444 83.2283 27.884C83.3495 27.4004 83.3895 26.9167 83.3895 26.3527V22.967Z" fill="white"/>
<path d="M126.996 24.6195C126.996 31.834 121.998 34.9776 117.282 34.9776C112.003 34.9776 107.932 31.1083 107.932 24.942C107.932 18.4124 112.204 14.5835 117.605 14.5835C123.208 14.5835 126.996 18.6542 126.996 24.6195ZM111.519 24.8207C111.519 29.0933 113.978 32.3177 117.444 32.3177C120.829 32.3177 123.369 29.1337 123.369 24.7403C123.369 21.4351 121.716 17.2434 117.524 17.2434C113.333 17.2434 111.519 21.1127 111.519 24.8207Z" fill="white"/>
<path d="M147.992 21.1127C147.992 18.8154 147.952 16.8406 147.831 15.0268H150.935L151.055 18.8556H151.217C152.103 16.2359 154.239 14.5835 156.617 14.5835C157.021 14.5835 157.303 14.6237 157.625 14.7043V18.0495C157.262 17.9691 156.899 17.9287 156.416 17.9287C153.917 17.9287 152.144 19.8229 151.66 22.4833C151.58 22.9669 151.499 23.531 151.499 24.1355V34.5343H147.992V21.1127Z" fill="white"/>
<path d="M132.976 0.142674L122.221 3.75865C122.164 3.77845 122.061 3.83082 122.063 3.93014C122.059 3.98778 122.095 4.08597 122.207 4.10781L128.819 5.45673L131.623 11.9542C131.626 11.9593 131.672 12.0559 131.75 12.0663C131.8 12.0758 131.887 12.0442 131.903 11.9148L133.585 0.707864L133.613 0.524113C133.624 0.303103 133.546 -0.0157747 132.976 0.142674Z" fill="white"/>
<path d="M133.586 0.707623L133.613 0.523873C133.618 0.397803 133.595 0.244437 133.473 0.162109L128.819 5.45649L131.624 11.9539C131.626 11.959 131.672 12.0557 131.75 12.0661C131.8 12.0755 131.887 12.044 131.903 11.9145L133.586 0.707623Z" fill="white"/>
</svg>
